<svg width="24" height="24" viewBox="0 0 24 24" fill="none" xmlns="http://www.w3.org/2000/svg">
<rect width="24" height="24" rx="2" fill="#F2F0EC"/>
<path d="M12 14.25C13.2426 14.25 14.25 13.2426 14.25 12C14.25 10.7574 13.2426 9.75 12 9.75C10.7574 9.75 9.75 10.7574 9.75 12C9.75 13.2426 10.7574 14.25 12 14.25Z" fill="black"/>
<path d="M15.0938 4.96875H8.90625C7.86232 4.96993 6.86149 5.38515 6.12332 6.12332C5.38515 6.86149 4.96993 7.86232 4.96875 8.90625V15.0938C4.96993 16.1377 5.38515 17.1385 6.12332 17.8767C6.86149 18.6148 7.86232 19.0301 8.90625 19.0312H15.0938C16.1377 19.0301 17.1385 18.6148 17.8767 17.8767C18.6148 17.1385 19.0301 16.1377 19.0312 15.0938V8.90625C19.0301 7.86232 18.6148 6.86149 17.8767 6.12332C17.1385 5.38515 16.1377 4.96993 15.0938 4.96875ZM12 15.375C11.3325 15.375 10.68 15.1771 10.125 14.8062C9.56993 14.4354 9.13735 13.9083 8.88191 13.2916C8.62646 12.6749 8.55962 11.9963 8.68985 11.3416C8.82008 10.6869 9.14151 10.0855 9.61351 9.61351C10.0855 9.14151 10.6869 8.82008 11.3416 8.68985C11.9963 8.55962 12.6749 8.62646 13.2916 8.88191C13.9083 9.13735 14.4354 9.56993 14.8062 10.125C15.1771 10.68 15.375 11.3325 15.375 12C15.374 12.8948 15.0181 13.7527 14.3854 14.3854C13.7527 15.0181 12.8948 15.374 12 15.375ZM15.6562 9.1875C15.4894 9.1875 15.3262 9.13802 15.1875 9.0453C15.0487 8.95259 14.9406 8.82081 14.8767 8.66664C14.8129 8.51246 14.7962 8.34281 14.8287 8.17914C14.8613 8.01547 14.9416 7.86513 15.0596 7.74713C15.1776 7.62913 15.328 7.54877 15.4916 7.51621C15.6553 7.48366 15.825 7.50037 15.9791 7.56423C16.1333 7.62809 16.2651 7.73623 16.3578 7.87499C16.4505 8.01374 16.5 8.17687 16.5 8.34375C16.5 8.56753 16.4111 8.78214 16.2529 8.94037C16.0946 9.09861 15.88 9.1875 15.6562 9.1875Z" fill="black"/>
</svg>
