<svg width="24" height="24" viewBox="0 0 24 24" fill="none" xmlns="http://www.w3.org/2000/svg">
<rect width="24" height="24" rx="2" fill="#F2F0EC"/>
<path d="M17.5508 8.90625C18.0977 8.49609 18.5898 8.00391 18.9727 7.42969C18.4805 7.64844 17.9062 7.8125 17.332 7.86719C17.9336 7.51172 18.3711 6.96484 18.5898 6.28125C18.043 6.60938 17.4141 6.85547 16.7852 6.99219C16.2383 6.41797 15.5 6.08984 14.6797 6.08984C13.0938 6.08984 11.8086 7.375 11.8086 8.96094C11.8086 9.17969 11.8359 9.39844 11.8906 9.61719C9.51172 9.48047 7.37891 8.33203 5.95703 6.60938C5.71094 7.01953 5.57422 7.51172 5.57422 8.05859C5.57422 9.04297 6.06641 9.91797 6.85938 10.4375C6.39453 10.4102 5.92969 10.3008 5.54688 10.082V10.1094C5.54688 11.5039 6.53125 12.6523 7.84375 12.9258C7.625 12.9805 7.35156 13.0352 7.10547 13.0352C6.91406 13.0352 6.75 13.0078 6.55859 12.9805C6.91406 14.1289 7.98047 14.9492 9.23828 14.9766C8.25391 15.7422 7.02344 16.207 5.68359 16.207C5.4375 16.207 5.21875 16.1797 5 16.1523C6.25781 16.9727 7.76172 17.4375 9.40234 17.4375C14.6797 17.4375 17.5508 13.0898 17.5508 9.28906C17.5508 9.15234 17.5508 9.04297 17.5508 8.90625Z" fill="black"/>
</svg>
