<svg width="32" height="32" viewBox="0 0 32 32" fill="none" xmlns="http://www.w3.org/2000/svg">
<g clip-path="url(#clip0_124_12)">
<path d="M23.875 22.6563L20.0937 18.875C20 18.8125 19.9062 18.75 19.8125 18.75H19.4062C20.375 17.625 21 16.125 21 14.5C21 10.9375 18.0625 8 14.5 8C10.9062 8 8 10.9375 8 14.5C8 18.0938 10.9062 21 14.5 21C16.125 21 17.5937 20.4063 18.75 19.4375V19.8438C18.75 19.9375 18.7812 20.0313 18.8437 20.125L22.625 23.9063C22.7812 24.0625 23.0312 24.0625 23.1562 23.9063L23.875 23.1875C24.0312 23.0625 24.0312 22.8125 23.875 22.6563ZM14.5 19.5C11.7187 19.5 9.5 17.2812 9.5 14.5C9.5 11.75 11.7187 9.5 14.5 9.5C17.25 9.5 19.5 11.75 19.5 14.5C19.5 17.2813 17.25 19.5 14.5 19.5Z" fill="black"/>
</g>
<defs>
<clipPath id="clip0_124_12">
<rect width="32" height="32" fill="white"/>
</clipPath>
</defs>
</svg>
