<svg width="24" height="24" viewBox="0 0 24 24" fill="none" xmlns="http://www.w3.org/2000/svg">
<rect width="24" height="24" rx="2" fill="#F2F0EC"/>
<path d="M7.86 18.18C9.75 18.18 10.74 17.265 11.46 15.69L9.69 14.67C9.42 15.57 9 16.29 7.86 16.29C6.675 16.29 5.94 15.57 5.94 14.13V11.4C5.94 9.96 6.675 9.24 7.86 9.24C9 9.24 9.345 9.855 9.57 10.755L11.43 9.795C10.725 8.145 9.75 7.35 7.86 7.35C5.355 7.35 3.66 8.925 3.66 12.84C3.66 16.755 5.355 18.18 7.86 18.18ZM17.608 18L20.623 7.53H18.463L16.813 13.89L16.483 16.05H16.243L15.913 13.89L14.233 7.53H12.013L15.088 18H17.608Z" fill="black"/>
</svg>
